<svg width="512" height="116" viewBox="0 0 512 116" fill="none" xmlns="http://www.w3.org/2000/svg">
<path d="M45.0804 115.182C35.7284 115.182 27.6871 113.286 20.9431 109.486C14.2387 105.646 9.07537 100.226 5.44654 93.2184C1.81772 86.1715 0 77.8404 0 68.2184C0 58.5964 1.81772 50.6011 5.44654 43.5147C9.07537 36.4283 14.186 30.9093 20.7653 26.9512C27.3907 22.9931 35.1555 21.0107 44.0728 21.0107C50.0659 21.0107 55.6442 21.9789 60.8141 23.9217C66.0235 25.8184 70.5546 28.6899 74.414 32.5295C78.3194 36.369 81.3555 41.1965 83.5288 47.0184C85.6956 52.8008 86.7823 59.5645 86.7823 67.3227V74.2708H10.0632V58.5964H63.0665C63.0665 54.9544 62.2762 51.7273 60.7021 48.9151C59.1215 46.103 56.935 43.9099 54.136 42.3227C51.3765 40.7025 48.1626 39.8859 44.4943 39.8859C40.8259 39.8859 37.2761 40.775 34.3191 42.5598C31.4015 44.2984 29.1096 46.6562 27.4566 49.6264C25.7969 52.5571 24.9539 55.8237 24.9144 59.4262V74.3301C24.9144 78.8414 25.7442 82.7403 27.3973 86.0266C29.0965 89.313 31.4805 91.8485 34.5562 93.6267C37.6318 95.4115 41.2803 96.3006 45.5019 96.3006C48.3009 96.3006 50.8694 95.9055 53.1942 95.1151C55.519 94.3248 57.5146 93.1394 59.1742 91.5522C60.8338 89.9716 62.0918 88.0287 62.9611 85.7368L86.2686 87.2779C85.0831 92.9023 82.6595 97.8088 78.9911 102.004C75.3623 106.16 70.6666 109.407 64.9171 111.745C59.2006 114.043 52.5949 115.189 45.1002 115.189H45.0936L45.0804 115.182ZM110.017 22.1962L126.699 54.0785L143.79 22.1962H169.639L143.315 67.7969L170.351 113.398H144.62L126.699 81.8709L108.575 114.596H82.7846L110.017 67.7969L83.9898 22.1962H110.024H110.017Z" fill="url(#paint0_linear_166_4824)"/>
<path d="M247.959 48.349L224.849 49.7715C224.454 47.7958 223.604 46.0176 222.3 44.437C220.996 42.8168 219.277 41.5326 217.143 40.5842C215.049 39.5964 212.54 39.1024 209.616 39.1024C205.704 39.1024 202.404 39.9322 199.724 41.5919C197.037 43.212 195.693 45.3853 195.693 48.1119C195.693 50.2852 196.562 52.1227 198.301 53.6243C200.04 55.1259 203.023 56.3311 207.245 57.2399L223.716 60.5592C232.561 62.3769 239.16 65.3011 243.507 69.3316C247.853 73.3622 250.027 78.6507 250.027 85.2102C250.027 91.177 248.268 96.4062 244.751 100.911C241.274 105.416 236.493 108.933 230.414 111.455C224.368 113.944 217.4 115.189 209.497 115.189C197.452 115.189 187.849 112.68 180.704 107.661C173.597 102.604 169.429 95.7345 168.204 87.0411L193.026 85.7371C193.777 89.412 195.594 92.2176 198.479 94.1538C201.364 96.0506 205.052 96.9989 209.556 96.9989C214.061 96.9989 217.532 96.1494 220.219 94.4502C222.945 92.7115 224.329 90.4789 224.368 87.7524C224.329 85.4605 223.36 83.5835 221.464 82.1214C219.567 80.6198 216.643 79.4739 212.698 78.6836L196.938 75.5421C188.053 73.7639 181.435 70.6817 177.088 66.2955C172.781 61.9093 170.627 56.3245 170.627 49.5279C170.627 43.6796 172.208 38.648 175.369 34.4198C178.57 30.1917 183.048 26.9317 188.817 24.6464C194.62 22.3545 201.416 21.2086 209.201 21.2086C220.693 21.2086 229.736 23.6387 236.335 28.4991C242.973 33.3595 246.839 39.9717 247.946 48.349H247.959ZM306.514 22.4006V41.3614H251.713V22.4006H306.514ZM264.153 0.594727H289.391V85.4473C289.391 87.7787 289.746 89.5964 290.457 90.9004C291.169 92.1649 292.157 93.054 293.421 93.5677C294.725 94.0814 296.227 94.3382 297.926 94.3382C299.111 94.3382 300.297 94.2395 301.482 94.0419C302.668 93.8048 303.577 93.627 304.209 93.5084L308.18 112.291C306.916 112.687 305.137 113.141 302.846 113.655C300.554 114.208 297.774 114.544 294.495 114.662C288.409 114.899 283.081 114.089 278.497 112.232C273.953 110.375 270.423 107.49 267.894 103.578C265.365 99.6662 264.12 94.7334 264.16 88.7666V0.594727H264.153ZM315.135 113.411V22.4006H339.608V38.2792H340.556C342.216 32.6285 345.002 28.3674 348.907 25.4828C352.819 22.5587 357.317 21.0966 362.415 21.0966C363.679 21.0966 365.043 21.1756 366.505 21.3337C367.967 21.4917 369.251 21.7091 370.357 21.9857V44.3843C369.172 44.0287 367.532 43.7125 365.438 43.4359C363.343 43.1593 361.427 43.021 359.688 43.021C355.974 43.021 352.661 43.8311 349.737 45.4512C346.852 47.0318 344.561 49.2447 342.861 52.0898C341.202 54.9349 340.372 58.2146 340.372 61.9225V113.411H315.135ZM398.92 115.13C393.112 115.13 387.942 114.122 383.397 112.107C378.853 110.052 375.264 107.029 372.616 103.045C370.008 99.0142 368.704 93.9958 368.704 87.996C368.704 82.9381 369.633 78.6968 371.49 75.2589C373.347 71.8211 375.876 69.055 379.071 66.9607C382.271 64.8664 385.907 63.2858 389.97 62.2189C394.08 61.152 398.38 60.4012 402.885 59.9665C408.18 59.4133 412.441 58.8996 415.681 58.4254C418.922 57.9117 421.273 57.1609 422.735 56.173C424.197 55.1851 424.928 53.7231 424.928 51.7868V51.4312C424.928 47.6772 423.743 44.7729 421.372 42.7181C419.04 40.6633 415.721 39.6359 411.42 39.6359C406.876 39.6359 403.267 40.6435 400.58 42.6588C396.951 45.6224 396.299 48.2304 395.647 50.1865L372.834 44.9704C374.79 39.7544 375.415 37.9169 378.893 33.893C382.37 29.8229 386.848 26.7012 392.341 24.5278C397.873 22.315 404.268 21.2086 411.539 21.2086C416.597 21.2086 421.431 21.8013 426.054 22.9867C430.717 24.1722 434.84 26.0097 438.436 28.4991C442.071 30.9886 444.929 34.1893 447.024 38.1014C449.118 41.9739 450.165 46.6169 450.165 52.0239V113.411H426.225V100.792H425.514C424.052 103.638 422.096 106.147 419.646 108.32C417.196 110.454 414.252 112.133 410.821 113.358C407.383 114.544 403.412 115.136 398.914 115.136H398.92V115.13ZM406.152 97.7102C409.866 97.7102 413.139 96.9792 415.984 95.5171C418.83 94.0155 421.062 92.0003 422.682 89.4713C424.302 86.9423 425.112 84.0774 425.112 80.8767V71.2152C424.322 71.7289 423.236 72.2031 421.852 72.6377C420.509 73.0329 418.988 73.4083 417.288 73.7639C415.589 74.0801 413.89 74.3764 412.191 74.653C410.492 74.8901 408.951 75.1075 407.568 75.305C404.604 75.7397 402.016 76.4312 399.803 77.3796C397.59 78.3279 395.871 79.6122 394.646 81.2323C393.421 82.8129 392.809 84.7887 392.809 87.1596C392.809 90.5975 394.053 93.2252 396.543 95.0429C399.072 96.8211 402.273 97.7102 406.139 97.7102H406.152ZM510.34 22.4006V41.3614H455.539V22.4006H510.34ZM467.973 0.594727H493.211V85.4473C493.211 87.7787 493.566 89.5964 494.277 90.9004C494.989 92.1649 495.977 93.054 497.241 93.5677C498.545 94.0814 500.047 94.3382 501.746 94.3382C502.931 94.3382 504.117 94.2395 505.302 94.0419C506.488 93.8048 507.397 93.627 508.029 93.5084L512 112.291C510.736 112.687 508.957 113.141 506.666 113.655C504.374 114.208 501.588 114.544 498.315 114.662C492.236 114.899 486.901 114.089 482.318 112.232C477.773 110.375 474.237 107.49 471.708 103.578C469.179 99.6662 467.934 94.7334 467.973 88.7666V0.594727Z" fill="#25292E"/>
<defs>
<linearGradient id="paint0_linear_166_4824" x1="163.753" y1="67.988" x2="0.000107296" y2="67.8621" gradientUnits="userSpaceOnUse">
<stop stop-color="#25292E"/>
<stop offset="1" stop-color="#047DD6"/>
</linearGradient>
</defs>
</svg>
