<svg width="150" height="148" viewBox="0 0 150 148" fill="none" xmlns="http://www.w3.org/2000/svg">
<path fill-rule="evenodd" clip-rule="evenodd" d="M9.02785 57.9049L5.03456 61.8881C-1.67819 68.5778 -1.67819 79.434 5.03456 86.1238L9.02785 90.1069C10.0706 91.147 11.848 90.4083 11.848 88.9427V59.075C11.848 57.6094 10.0706 56.8707 9.02785 57.9108V57.9049ZM19.4376 100.49L29.1661 110.194C30.2088 111.234 31.9863 110.495 31.9863 109.03V38.9761C31.9863 37.5105 30.2088 36.7718 29.1661 37.8119L19.4376 47.5156C19.1296 47.8229 18.9518 48.2425 18.9518 48.6799V99.3202C18.9518 99.7575 19.1236 100.177 19.4376 100.484V100.49ZM38.9893 28.0136L48.7178 18.3099C49.7605 17.2697 51.538 18.0085 51.538 19.4741V128.532C51.538 129.997 49.7605 130.736 48.7178 129.696L38.9893 119.992C38.6812 119.685 38.5035 119.265 38.5035 118.828V29.1778C38.5035 28.7405 38.6753 28.3209 38.9893 28.0136ZM62.8543 143.791L59.1394 140.085C58.8313 139.778 58.6536 139.358 58.6536 138.921V9.0848C58.6536 8.64748 58.8254 8.22789 59.1394 7.92058L62.8543 4.2152C64.7976 2.27681 67.0905 0.899849 69.5255 0.0843095C70.5861 -0.270273 71.6881 0.539357 71.6881 1.65629V146.344C71.6881 147.461 70.592 148.27 69.5255 147.916C67.0845 147.1 64.7976 145.723 62.8543 143.785V143.791ZM87.1517 143.791C85.3446 145.593 83.2413 146.905 80.9959 147.738C79.9294 148.134 78.7978 147.319 78.7978 146.184V1.82767C78.7978 0.693009 79.9294 -0.12253 80.9959 0.27342C83.2413 1.10669 85.3446 2.41864 87.1517 4.22111L144.965 61.8881C151.678 68.5837 151.678 79.434 144.965 86.1238L87.1517 143.791Z" fill="url(#paint0_linear_481_10)"/>
<defs>
<linearGradient id="paint0_linear_481_10" x1="150" y1="74.0014" x2="0.000117948" y2="73.759" gradientUnits="userSpaceOnUse">
<stop stop-color="#047DD6"/>
<stop offset="1" stop-color="#25292E"/>
</linearGradient>
</defs>
</svg>
