<svg width="512" height="506" viewBox="0 0 512 506" fill="none" xmlns="http://www.w3.org/2000/svg">
<path fill-rule="evenodd" clip-rule="evenodd" d="M30.815 197.969L17.1846 211.586C-5.72821 234.458 -5.72821 271.573 17.1846 294.445L30.815 308.063C34.3743 311.618 40.4413 309.093 40.4413 304.082V201.969C40.4413 196.958 34.3743 194.433 30.815 197.989V197.969ZM66.3472 343.562L99.5536 376.737C103.113 380.293 109.18 377.768 109.18 372.757V133.254C109.18 128.243 103.113 125.717 99.5536 129.273L66.3472 162.449C65.2956 163.5 64.6889 164.934 64.6889 166.429V339.561C64.6889 341.056 65.2753 342.491 66.3472 343.542V343.562ZM133.084 95.7744L166.29 62.5987C169.849 59.0428 175.916 61.5683 175.916 66.579V439.432C175.916 444.443 169.849 446.968 166.29 443.412L133.084 410.236C132.032 409.186 131.425 407.751 131.425 406.256V99.7547C131.425 98.2596 132.012 96.8251 133.084 95.7744ZM214.543 491.6L201.863 478.931C200.811 477.881 200.204 476.446 200.204 474.951V31.0596C200.204 29.5645 200.791 28.13 201.863 27.0793L214.543 14.4111C221.176 7.78409 229.002 3.07645 237.314 0.288242C240.934 -0.924025 244.695 1.84398 244.695 5.66262V500.328C244.695 504.147 240.954 506.915 237.314 505.702C228.982 502.914 221.176 498.207 214.543 491.579V491.6ZM297.478 491.6C291.31 497.762 284.13 502.247 276.466 505.096C272.826 506.45 268.963 503.662 268.963 499.782V6.24855C268.963 2.3693 272.826 -0.418913 276.466 0.934784C284.13 3.78361 291.31 8.269 297.478 14.4314L494.815 211.586C517.728 234.478 517.728 271.573 494.815 294.445L297.478 491.6Z" fill="url(#paint0_linear_360_6)"/>
<defs>
<linearGradient id="paint0_linear_360_6" x1="0.831362" y1="252.995" x2="442.463" y2="252.995" gradientUnits="userSpaceOnUse">
<stop stop-color="#0476C9"/>
<stop offset="1" stop-color="#F5F5F5"/>
</linearGradient>
</defs>
</svg>
